<?xml version="1.0" encoding="UTF-8"?> <svg xmlns="http://www.w3.org/2000/svg" id="_01" data-name="01" width="241.656" height="91.813" viewBox="0 0 241.656 91.813"><defs><style> .cls-1 { fill: #13c6dd; } .cls-1, .cls-2 { fill-rule: evenodd; } .cls-2 { fill: #ffffff; } </style></defs><path class="cls-1" d="M33.426,53.319c9.142,0.617,7.715,15.687,23.162,13.69-6.808,8.461-19.677,11.725-29.743,2.566C20.589,79.983,24.171,91.789,34.885,92a33.543,33.543,0,0,0,22.044-9.808C81.761,57.314,48.241,21.929,33.07.2,17.9,21.929-15.637,57.314,9.194,82.192,5.953,71.62,11.334,61.1,16.116,57.476c-7.1-12.667,2.172-29.036,9.142-32.608C22.064,44.387,35.874,40.9,33.426,53.319Z" transform="translate(-0.313 -0.188)"></path><path id="qovo" class="cls-2" d="M91.644,34.107a15.634,15.634,0,0,0-8.5,2.448,17.288,17.288,0,0,0-6.16,6.843A21.333,21.333,0,0,0,74.7,53.36a20.724,20.724,0,0,0,2.277,9.861A17.022,17.022,0,0,0,83.107,69.9a15.9,15.9,0,0,0,8.537,2.382,12.284,12.284,0,0,0,11.115-6.44V89.719h11.383V34.443H102.759v5.434q-3.615-5.769-11.115-5.769h0Zm2.879,10a8.08,8.08,0,0,1,5.791,2.348,8.871,8.871,0,0,1,2.444,6.708,8.981,8.981,0,0,1-2.444,6.742,8.018,8.018,0,0,1-5.791,2.382,8.115,8.115,0,0,1-5.792-2.247q-2.377-2.247-2.377-6.675,0-4.494,2.41-6.876A7.908,7.908,0,0,1,94.524,44.1h0Zm44.325-10.13a21.175,21.175,0,0,0-9.976,2.314,16.9,16.9,0,0,0-6.93,6.675,20.076,20.076,0,0,0-2.511,10.2,20.073,20.073,0,0,0,2.511,10.2,16.893,16.893,0,0,0,6.93,6.675,22.586,22.586,0,0,0,19.919,0,16.951,16.951,0,0,0,6.9-6.675,20.073,20.073,0,0,0,2.511-10.2,20.076,20.076,0,0,0-2.511-10.2,16.958,16.958,0,0,0-6.9-6.675,20.978,20.978,0,0,0-9.943-2.314h0Zm0,9.928a7.189,7.189,0,0,1,5.491,2.381q2.21,2.382,2.209,6.876T144.339,60a7.232,7.232,0,0,1-5.491,2.348A7.336,7.336,0,0,1,133.324,60q-2.244-2.347-2.243-6.842t2.243-6.876a7.292,7.292,0,0,1,5.524-2.381h0Zm33.679-9.459H160.341L173.6,71.875h14.195L201.05,34.443H188.864l-8.1,26.23Zm50.083-.47a21.176,21.176,0,0,0-9.977,2.314,16.9,16.9,0,0,0-6.93,6.675,20.076,20.076,0,0,0-2.511,10.2,20.073,20.073,0,0,0,2.511,10.2,16.893,16.893,0,0,0,6.93,6.675,22.589,22.589,0,0,0,19.92,0,16.949,16.949,0,0,0,6.9-6.675,20.073,20.073,0,0,0,2.511-10.2,20.076,20.076,0,0,0-2.511-10.2,16.956,16.956,0,0,0-6.9-6.675,20.981,20.981,0,0,0-9.943-2.314h0Zm0,9.928a7.188,7.188,0,0,1,5.49,2.381q2.21,2.382,2.21,6.876T228.1,60a7.231,7.231,0,0,1-5.49,2.348A7.334,7.334,0,0,1,217.086,60q-2.244-2.347-2.243-6.842t2.243-6.876A7.291,7.291,0,0,1,222.61,43.9h0Z" transform="translate(-0.313 -0.188)"></path></svg> 